<?xml version="1.0" encoding="UTF-8"?>
<svg xmlns="http://www.w3.org/2000/svg" version="1.1" viewBox="0 0 400 332.5">
  <defs>
    <style>
      .cls-1 {
        fill: #fff;
        fill-rule: evenodd;
      }
    </style>
  </defs>
  <!-- Generator: Adobe Illustrator 28.6.0, SVG Export Plug-In . SVG Version: 1.2.0 Build 709)  -->
  <g>
    <g id="svg">
      <g id="svgg">
        <path id="path0" class="cls-1" d="M88.9,3.1c-15.6,16.2-21.1,32.9-13.5,41.1,2,2.2,2.5,2.3,3.5.6.8-1.4,3.4-5.3,9.6-15,3.7-5.8,4.5-7.4,5.2-10.4.7-3.4,2.2-15.7,2.2-18.6v-.7s-2,0-2,0h-2l-3,3.1M306,.5c0,1.1,1.1,12.2,1.5,14.8.9,6.5,1.5,7.8,8.5,18.6,2.6,4,5.4,8.4,6.3,9.8l1.6,2.5.7-.4c1.1-.6,3.1-2.8,3.8-4.3,4.4-9.2-1.4-23.9-15.3-38.3l-3.1-3.2h-2c-1.7,0-2,0-2,.5M62,27.9c-15.8,21.4-19.1,45.5-7.1,51.1,2.3,1,2.5,1,3-1.1,1-3.6,3.3-10.8,5.1-15.9,3.1-9,3.2-9.4,3.1-15.5-.1-4.6-1.6-21-1.9-21.3,0,0-1,1.1-2.2,2.7M337.6,25.4c0,.2-.3,3.3-.7,6.9-1.1,11.1-1.3,13.5-1.2,17.2v3.6c.1,0,3.8,10.9,3.8,10.9,2,6,4,12,4.3,13.3.7,2.8.9,2.8,3.4,1.5,9.6-4.8,9.3-22.4-.7-40.6-2.9-5.3-9-13.9-9-12.8M95.5,43.4c-4.2,1.1-11.4,6.2-18.7,13.2l-3.2,3.1.6.7c3.5,3.7,12.1,3.9,20.2.4,6.1-2.6,24.7-14.4,23.9-15.1-.3-.2-5.5-1.4-9-2-3.7-.6-11.8-.8-13.9-.3M296.3,43.1c-4.2.5-12.3,2-12.8,2.5-.6.5,14.1,10.3,20.4,13.5,9.9,5.1,19.7,5.6,23.8,1.2l.6-.7-3.4-3.2c-12.1-11.6-18.1-14.4-28.6-13.2M37.7,63.4c-11.1,24.6-6.8,54,8,54.9h2c0,.1,0-15,0-15,0-8.3-.1-15.5-.2-16-.5-2.4-1.8-6.2-5.2-15.4-2-5.4-3.7-9.9-3.7-10,0,0-.4.6-.8,1.5M363.1,62.5c-.1.3-1.8,5-3.8,10.3-2,5.3-3.9,10.9-4.3,12.4l-.8,2.7v15.2s0,15.2,0,15.2h2c14.6-1,18.9-27.2,8.6-53.4-1.2-3.1-1.5-3.4-1.8-2.5M86.3,69.6c-.4,0-2,.2-3.4.4-3.4.4-7.3,1.4-9.3,2.5-4.1,2.1-10.5,10.2-15.1,19l-1.6,3,1.2.5c4.8,2,12.1,0,18.8-5,5.3-4,20.6-19.8,19.7-20.3-.3-.2-8.7-.2-10.3,0M305.3,69.6c-.8.5,15,16.8,19.8,20.4,6.6,4.9,14.2,6.9,18.7,4.9l1.2-.5-1.4-2.7c-6.3-12-12.7-18.9-18.9-20.7-4.3-1.2-18.2-2.2-19.3-1.4M152.6,84.2c-13.8,1.2-24.9,6.3-34.4,15.9-2.3,2.3-4.8,5.4-4.8,5.8s2.5,1.3,8,3.4c.2,0,.9-.9,1.6-2.3,8.9-16.8,27.1-25.4,42.7-20.2,13.1,4.4,24.5,18,28.7,34.2l.7,2.8-.4,2.6c-5.7,33.2,18.1,61.9,51.4,61.9,14.8,0,27.3-5.2,37.7-15.7,3.1-3.2,3.3-3.4,2.5-4.3l-.6-.7-2.4,2.6c-13.4,14.3-33,18.1-50.4,9.8-12.1-5.8-20.9-16.5-24.9-30.4l-.8-2.7.4-2.6c5.2-32.8-22.4-63.1-54.9-60.3M241.5,84.3c-13.1,1.2-25.9,7.5-34.4,17.1-2.7,3-2.6,2.6-1,5.3.8,1.3,1.9,3.3,2.5,4.6,1.4,2.9,1.1,3,2.9-.8,5.4-11.4,15-20.5,25-23.8,15.6-5.1,34.2,3.9,42.7,20.7.6,1.2,1.1,1.9,1.3,1.9,5.6-2.2,8-3.3,8-3.5,0-.5-3-4.1-5.6-6.6-11-10.8-26.1-16.2-41.3-14.9M79,97.3c-8.2,2.1-15.1,5.5-18.3,9-3.1,3.5-6.4,12.8-7.9,22.8-.6,3.7-.6,3.4,1,3.4,6.6,0,12.6-4.7,18.2-14.1,2.3-3.8,10.9-21.2,10.9-21.9s-.1-.2-3.9.8M319,96.6c0,.9,9.4,19.6,11.7,23.2,5.2,8.4,11.3,12.8,17.4,12.8,1.7,0,1.6.3,1-3.6-1.4-9.7-4.8-19.3-8-22.8-3.6-4-11-7.3-21.3-9.7-.4,0-.7-.1-.7,0M23.6,107.4c-.3,2.5-.2,12.3.1,15.7,2.5,23,13.3,37.7,25.7,35.1,1.8-.4,1.8-.3.3-4.3-1.6-4.3-4-11.8-6-18.2-2.3-7.7-2.5-8-11.9-19.7-3.1-3.9-6.1-7.7-6.8-8.6-.6-.9-1.2-1.6-1.2-1.6s-.2.7-.3,1.6M376.4,108c-.9,1.2-3.9,5-6.8,8.6-9.1,11.4-8.8,10.9-12.1,21.5-2.2,7-5,15.2-6.1,18.2-.3.7-.5,1.3-.5,1.4,0,.4,3.3,1,5.2.9,13-.8,22.5-19.7,22.4-44.5q0-8.7-2.1-6M76.6,125.9c-9.1,5.2-16.2,12.7-17.5,18.5-1.3,5.6-.6,25.8.8,25.8s.9-.3,1.8-.6c6.2-2.1,10.6-8.6,13-19.4.9-4,3.4-22,3.4-24.5,0-.5-.2-.4-1.5.3M324,126.9c3,26.8,5.1,34,11.4,39.8,2.4,2.2,6.6,4,6.9,3,1.8-6,1.8-22.8,0-27.4-1.8-4.7-8.4-11.2-16.2-15.9-2.3-1.4-2.3-1.4-2.1.5M23.9,153.5c.8,4.7,4.3,14.6,7.4,20.7,8.5,16.7,21.3,25.9,30.9,22.2,2.1-.8,3.6-2,3.2-2.6-.1-.2-1.9-2.6-3.9-5.2-2-2.7-5.6-7.8-8.1-11.4-6.4-9.6-6.2-9.4-21.2-19.4-9.2-6.1-8.6-5.8-8.3-4.3M368.6,158.5c-14,9.4-13.8,9.2-20.3,18.8-4.1,6.1-7.5,10.8-10.3,14.4-2,2.6-2,2.6-.5,3.6,10.3,7,26.4-4.8,35.4-26.1,2.8-6.5,5.9-16.9,5-16.9-.1,0-4.3,2.8-9.3,6.1M80.7,156.3c-6.6,7.2-11.3,16.1-11.3,21.2s2.6,14,6.8,22.4c1.9,3.9,2,3.9,3.8,2.4,5.7-4.5,7.7-14.8,5.7-28.7-1-6.9-3.1-18.9-3.3-18.9s-.8.7-1.6,1.6M319.4,155.1c-.2.6-2.3,12.8-3,17.8-2.1,14.6-.6,23.6,4.8,28.7,2.4,2.3,2.6,2.3,4.1-.6,5.4-10.3,8.2-21.4,6.8-26.9-1.4-5.5-11.9-21.2-12.7-19M189.9,160c-11.2,21.7-37.6,30.6-58.6,19.9-5.1-2.6-11.6-7.8-14.3-11.4l-.6-.8-.7.7c-.9.9-.8,1,2.7,4.5,14.7,14.5,35.2,19.5,54.2,13.1,8.6-2.9,16.1-7.8,22.4-14.9,2.6-2.8,2.5-2.2.5-5.6-.9-1.5-2.1-3.9-2.7-5.3-.6-1.4-1.2-2.6-1.3-2.7,0-.1-.8,1.1-1.6,2.6M93.2,183.9c-3.9,9.3-5.4,18.7-3.8,23.5,1.8,5.1,8.9,15.3,14.8,21l1.7,1.6,1-1.1c6.2-7,4.3-17.2-7.4-39.5-5.3-10-4.6-9.4-6.3-5.5M306.5,181.8c-2.9,5.1-9.6,18.4-11.2,22.1-4.6,10.9-4.7,20-.2,25l1,1.1,2.5-2.6c5.8-6,12.2-15,13.8-19.7,1.8-5.1,0-15.8-4.1-24.8l-1.1-2.3-.7,1.2M37,196.6c0,1.3,7.8,12.2,11.9,16.7,14.6,16,32.3,21.7,40.7,13.1,1.9-1.9,1.9-1.9-2-4.6-3.1-2.1-7.7-5.6-17.3-12.9-5.1-3.9-6-4.3-17.4-7.7-3.5-1-8.4-2.6-10.9-3.4-5-1.6-5-1.6-5-1.3M363.1,196.8c-.6.2-4.1,1.3-7.7,2.4-20.3,6.2-17,4.6-32.4,16.3-2.2,1.6-5.8,4.3-8,5.8-2.3,1.6-4.1,2.9-4.1,3,0,.5,1.6,2.4,2.7,3.1,12.3,8.9,35.1-3.8,49.6-27.8,2.2-3.7,2.2-3.8,0-2.9M114.7,203.7c-1.1,8-.4,19.1,1.5,24.1,1.6,4.2,8.8,11.6,19.4,19.8,3.3,2.6,3.3,2.6,4.2,1,4.1-7,1.4-16.8-7.8-28.2-3.5-4.3-16.4-18.1-16.9-18.1s-.3.6-.4,1.4M281.4,207.8c-15.7,16.4-20.6,23.9-20.9,32.5-.2,4.2,1.3,9.5,2.7,9.5s9-6.7,13.7-11c8.4-7.8,10.1-11.2,10.8-21.7.4-5.3-.2-14.8-.8-14.8s-2.6,2.5-5.5,5.5M142.1,220.7c0,7.8,4.6,23.7,8,27.9,1.8,2.2,17.4,15.4,22.9,19.3.9.7,2.8-2.4,3.4-5.6,2.2-11.1-8.3-24.6-31.5-40.6-3-2.1-2.8-2-2.8-1M256.7,221.9c-25.1,17.2-35.7,32.8-30,43.8,1.2,2.2,1.6,2.7,2.3,2.2,6-4.3,21.6-17.6,23.3-19.8,3-3.9,5.6-12.7,7.2-23.7.7-5,.8-4.9-2.7-2.5M68.6,234.7h-5.5c0,.1,1.6,1.7,1.6,1.7,21.7,20,50.8,26.2,57.7,12.1.9-1.8,1.1-1.5-2.8-3.1-1.7-.7-7.2-2.9-12.1-5-15.5-6.6-14.1-6.4-38.9-5.7M309.7,234.7c-2.4.4-4.3,1-15.5,5.8-5.7,2.4-11.4,4.8-12.7,5.3-2.8,1.1-2.9,1.4-1.3,3.7,6.1,9.2,22.5,8.8,40-1,5.7-3.2,14.5-9.5,17.6-12.7l1-1.1-8.2-.2c-10.4-.2-18.8-.2-20.9.1M183.2,249.7c0,1.2.4,6.4.7,11.6.6,8.9.6,9.5,1.3,10.8.8,1.7,4.4,5.3,6.9,6.9,2.2,1.5,2.3,1.1-.7,3.7-9.6,8.3-18,19.5-21.8,29.1-1.7,4.2-3.3,10.9-3,12.4,0,.3,3-3.3,9.3-11.7,9.1-12.2,23.4-29.5,23.9-29,15.4,17.5,15.9,18,24.3,29.7,8.7,12,8.7,12.1,8.5,10.5-2-14.6-11.5-29.9-26.2-42.2-.7-.6-1.3-1.2-1.2-1.2,0,0,1.1-.8,2.2-1.5,6.7-4.6,7-5.3,7.9-18.5.4-5.8.7-11,.8-11.5,0-.6,0-1,0-1-.1,0-8.8,10.3-14.6,17.2-1,1.2-1.9,2.2-2,2.2-.1,0-2.8-3.2-5.9-7-6.1-7.4-9.9-11.9-10.3-12.3-.2-.2-.2.5,0,1.9M124.2,256.7c-.4,0-1.6.2-2.7.4-3.7.5-24.3,5.8-24.3,6.2s7.6,4.2,11.3,5.8c22.8,9.9,42.4,9.1,47.9-2.1,1.2-2.3,1.7-1.9-5.5-4.2-15.1-4.7-23.5-6.6-26.7-6.1M272.4,257c-6.9,1.2-27.5,7.4-27.6,8.3-.2.8,1.4,3.3,3.3,5.2,7.7,7.7,24.3,7.3,44.3-1,3.6-1.5,12.3-5.9,12.3-6.2s-9.5-2.8-16.7-4.6c-8-2-11.9-2.4-15.5-1.8"/>
      </g>
    </g>
  </g>
</svg>