<svg id="svg" xmlns="http://www.w3.org/2000/svg" xmlns:xlink="http://www.w3.org/1999/xlink" width="400" height="332.4780553679946" viewBox="0, 0, 400,332.4780553679946"><g id="svgg"><path id="path0" d="M88.909 3.102 C 73.330 19.307,67.856 35.993,75.425 44.204 C 77.432 46.381,77.893 46.456,78.929 44.773 C 79.779 43.390,82.315 39.427,88.541 29.746 C 92.275 23.938,93.043 22.386,93.701 19.311 C 94.430 15.908,95.877 3.579,95.880 0.743 L 95.881 0.000 93.886 0.000 L 91.891 0.000 88.909 3.102 M306.009 0.482 C 306.009 1.619,307.126 12.658,307.510 15.321 C 308.448 21.820,309.023 23.072,316.037 33.896 C 318.635 37.907,321.463 42.311,322.320 43.683 L 323.878 46.177 324.608 45.799 C 325.695 45.237,327.692 42.984,328.397 41.524 C 332.842 32.316,326.958 17.591,313.084 3.201 L 309.998 0.000 308.004 0.000 C 306.269 0.000,306.009 0.063,306.009 0.482 M61.970 27.863 C 46.180 49.216,42.822 73.390,54.866 78.997 C 57.122 80.047,57.316 79.975,57.915 77.853 C 58.924 74.279,61.261 67.037,63.035 61.985 C 66.185 53.016,66.266 52.604,66.090 46.455 C 65.960 41.885,64.469 25.486,64.155 25.172 C 64.093 25.110,63.110 26.321,61.970 27.863 M337.621 25.421 C 337.615 25.662,337.313 28.761,336.951 32.308 C 335.814 43.450,335.653 45.796,335.771 49.483 L 335.885 53.072 339.554 64.011 C 341.571 70.027,343.506 76.013,343.854 77.313 C 344.596 80.085,344.707 80.135,347.275 78.852 C 356.910 74.037,356.622 56.495,346.608 38.217 C 343.706 32.922,337.650 24.298,337.621 25.421 M95.502 43.356 C 91.320 44.417,84.100 49.527,76.806 56.588 L 73.622 59.670 74.232 60.320 C 77.703 64.014,86.353 64.204,94.459 60.764 C 100.539 58.183,119.176 46.387,118.377 45.625 C 118.114 45.375,112.855 44.196,109.386 43.611 C 105.683 42.986,97.551 42.836,95.502 43.356 M296.286 43.136 C 292.077 43.604,283.984 45.178,283.520 45.619 C 282.948 46.163,297.664 55.892,303.911 59.099 C 313.774 64.163,323.624 64.660,327.670 60.299 L 328.292 59.629 324.916 56.385 C 312.827 44.771,306.774 41.969,296.286 43.136 M37.661 63.370 C 26.568 87.994,30.844 117.377,45.645 118.241 L 47.670 118.360 47.660 103.272 C 47.654 94.973,47.554 87.758,47.437 87.238 C 46.897 84.839,45.593 80.991,42.222 71.856 C 40.219 66.429,38.534 61.942,38.478 61.885 C 38.421 61.829,38.054 62.497,37.661 63.370 M363.118 62.454 C 363.014 62.790,361.325 67.441,359.363 72.789 C 357.401 78.136,355.451 83.727,355.029 85.213 L 354.263 87.914 354.241 103.137 L 354.220 118.360 356.246 118.242 C 370.868 117.387,375.118 91.152,364.878 64.960 C 363.681 61.900,363.409 61.512,363.118 62.454 M86.293 69.588 C 85.847 69.640,84.328 69.816,82.917 69.979 C 79.484 70.376,75.610 71.408,73.612 72.458 C 69.529 74.602,63.152 82.650,58.553 91.462 L 56.983 94.470 58.134 94.950 C 62.928 96.948,70.214 95.010,76.904 89.956 C 82.245 85.922,97.503 70.193,96.619 69.632 C 96.299 69.429,87.963 69.393,86.293 69.588 M305.275 69.609 C 304.501 70.150,320.270 86.420,325.051 90.013 C 331.633 94.961,339.253 96.959,343.775 94.922 L 344.944 94.396 343.531 91.695 C 337.275 79.740,330.876 72.761,324.591 71.039 C 320.261 69.852,306.396 68.826,305.275 69.609 M152.600 84.159 C 138.797 85.320,127.734 90.433,118.233 100.042 C 115.954 102.348,113.437 105.408,113.437 105.873 C 113.437 106.046,115.976 107.132,121.444 109.299 C 121.618 109.368,122.306 108.376,123.011 107.040 C 131.872 90.259,150.131 81.599,165.662 86.812 C 178.738 91.202,190.184 104.853,194.370 121.053 L 195.089 123.835 194.639 126.460 C 188.939 159.656,212.764 188.347,246.050 188.371 C 260.892 188.383,273.333 183.202,283.782 172.658 C 286.924 169.487,287.074 169.231,286.284 168.390 L 285.660 167.726 283.246 170.298 C 269.822 184.601,250.214 188.420,232.816 180.120 C 220.749 174.364,211.922 163.601,207.921 149.767 L 207.140 147.069 207.546 144.500 C 212.727 111.654,185.196 81.419,152.600 84.159 M241.510 84.285 C 228.417 85.439,215.611 91.812,207.087 101.418 C 204.385 104.463,204.470 104.013,206.092 106.697 C 206.851 107.953,207.976 110.044,208.592 111.344 C 209.959 114.231,209.698 114.303,211.479 110.543 C 216.877 99.144,226.470 90.007,236.465 86.741 C 252.105 81.632,270.679 90.651,279.116 107.451 C 279.701 108.616,280.244 109.379,280.434 109.304 C 286.068 107.074,288.454 106.035,288.454 105.809 C 288.454 105.302,285.424 101.732,282.827 99.180 C 271.850 88.393,256.735 82.944,241.510 84.285 M79.001 97.344 C 70.774 99.452,63.882 102.855,60.738 106.360 C 57.622 109.834,54.379 119.164,52.810 129.167 C 52.233 132.845,52.165 132.614,53.815 132.609 C 60.368 132.591,66.438 127.882,72.009 118.497 C 74.265 114.696,82.917 97.299,82.917 96.563 C 82.917 96.349,82.779 96.376,79.001 97.344 M318.974 96.552 C 318.974 97.417,328.419 116.190,330.662 119.784 C 335.880 128.144,341.919 132.592,348.076 132.609 C 349.727 132.614,349.654 132.873,349.080 129.033 C 347.634 119.374,344.237 109.741,341.045 106.248 C 337.423 102.285,330.032 98.935,319.716 96.581 C 319.308 96.487,318.974 96.474,318.974 96.552 M23.604 107.427 C 23.283 109.896,23.372 119.758,23.747 123.160 C 26.278 146.137,37.072 160.896,49.410 158.250 C 51.236 157.858,51.225 157.998,49.733 153.907 C 48.176 149.642,45.698 142.109,43.749 135.719 C 41.412 128.057,41.208 127.717,31.885 116.003 C 28.811 112.140,25.773 108.282,25.134 107.427 C 24.496 106.573,23.935 105.874,23.890 105.874 C 23.844 105.874,23.716 106.573,23.604 107.427 M376.376 107.961 C 375.494 109.116,372.443 112.983,369.597 116.554 C 360.485 127.989,360.768 127.488,357.476 138.015 C 355.301 144.971,352.515 153.239,351.353 156.188 C 351.073 156.899,350.844 157.534,350.844 157.599 C 350.844 158.041,354.129 158.592,356.086 158.478 C 369.038 157.726,378.585 138.749,378.475 113.977 C 378.436 105.249,378.440 105.261,376.376 107.961 M76.570 125.945 C 67.494 131.138,60.345 138.668,59.052 144.398 C 57.785 150.009,58.411 170.155,59.852 170.155 C 59.921 170.155,60.726 169.903,61.641 169.594 C 67.846 167.504,72.233 160.945,74.643 150.156 C 75.542 146.131,78.038 128.202,78.053 125.658 C 78.056 125.188,77.810 125.236,76.570 125.945 M323.973 126.874 C 327.016 153.668,329.088 160.901,335.365 166.646 C 337.722 168.803,342.009 170.679,342.305 169.683 C 344.106 163.637,344.097 146.887,342.290 142.276 C 340.466 137.618,333.845 131.123,326.075 126.367 C 323.824 124.989,323.760 125.004,323.973 126.874 M23.909 153.477 C 24.685 158.201,28.216 168.050,31.341 174.209 C 39.815 190.909,52.602 200.078,62.290 196.401 C 64.363 195.614,65.883 194.402,65.496 193.845 C 65.348 193.630,63.585 191.281,61.579 188.625 C 59.572 185.968,55.930 180.825,53.484 177.196 C 47.036 167.629,47.255 167.829,32.235 157.778 C 23.054 151.635,23.657 151.947,23.909 153.477 M368.612 158.487 C 354.581 167.935,354.797 167.733,348.349 177.313 C 344.228 183.435,340.869 188.136,338.036 191.745 C 336.032 194.299,336.029 194.319,337.496 195.321 C 347.767 202.328,363.853 190.474,372.931 169.210 C 375.711 162.697,378.791 152.287,377.920 152.343 C 377.809 152.350,373.620 155.115,368.612 158.487 M80.741 156.313 C 74.132 163.539,69.413 172.374,69.413 177.520 C 69.413 182.993,71.974 191.473,76.184 199.932 C 78.111 203.807,78.149 203.831,80.013 202.354 C 85.709 197.840,87.736 187.574,85.676 173.666 C 84.653 166.755,82.542 154.760,82.348 154.760 C 82.245 154.760,81.522 155.459,80.741 156.313 M319.375 155.098 C 319.171 155.659,317.123 167.865,316.389 172.885 C 314.260 187.465,315.765 196.517,321.165 201.612 C 323.611 203.919,323.734 203.901,325.249 201.013 C 330.644 190.725,333.457 179.605,332.054 174.111 C 330.641 168.576,320.177 152.885,319.375 155.098 M189.930 159.975 C 178.701 181.632,152.296 190.577,131.280 179.844 C 126.177 177.238,119.655 172.029,116.974 168.417 L 116.386 167.624 115.694 168.316 C 114.794 169.215,114.870 169.343,118.345 172.779 C 132.999 187.270,153.588 192.261,172.586 185.929 C 181.138 183.078,188.667 178.085,195.012 171.057 C 197.578 168.216,197.518 168.857,195.531 165.450 C 194.632 163.909,193.401 161.512,192.795 160.123 C 192.189 158.733,191.617 157.512,191.525 157.409 C 191.433 157.306,190.715 158.460,189.930 159.975 M93.240 183.865 C 89.295 193.207,87.802 202.558,89.484 207.390 C 91.260 212.493,98.411 222.642,104.258 228.359 L 105.915 229.980 106.875 228.899 C 113.124 221.865,111.221 211.677,99.494 189.380 C 94.219 179.351,94.895 179.948,93.240 183.865 M306.500 181.769 C 303.593 186.873,296.866 200.137,295.268 203.916 C 290.663 214.806,290.585 223.887,295.051 228.902 L 296.011 229.980 298.512 227.411 C 304.310 221.456,310.696 212.366,312.361 207.697 C 314.191 202.566,312.421 191.853,308.255 182.849 L 307.192 180.554 306.500 181.769 M37.002 196.570 C 37.002 197.826,44.815 208.778,48.933 213.296 C 63.539 229.316,81.198 235.019,89.588 226.426 C 91.490 224.478,91.524 224.556,87.576 221.840 C 84.463 219.698,79.861 216.268,70.269 208.943 C 65.156 205.038,64.253 204.635,52.876 201.194 C 49.419 200.148,44.508 198.631,41.962 197.823 C 36.981 196.242,37.002 196.247,37.002 196.570 M363.133 196.792 C 362.539 197.012,359.075 198.104,355.436 199.219 C 335.100 205.451,338.440 203.770,323.025 215.540 C 320.871 217.184,317.255 219.810,314.990 221.375 C 312.725 222.939,310.871 224.293,310.871 224.384 C 310.871 224.865,312.466 226.736,313.547 227.523 C 325.818 236.458,348.598 223.689,363.125 199.733 C 365.368 196.034,365.368 195.965,363.133 196.792 M114.665 203.714 C 113.585 211.673,114.271 222.766,116.152 227.795 C 117.730 232.013,124.946 239.383,135.578 247.635 C 138.886 250.203,138.858 250.196,139.790 248.606 C 143.894 241.604,141.181 231.790,131.990 220.392 C 128.516 216.083,115.624 202.296,115.069 202.296 C 114.952 202.296,114.770 202.934,114.665 203.714 M281.378 207.765 C 265.636 224.176,260.818 231.656,260.428 240.281 C 260.240 244.439,261.761 249.831,263.122 249.831 C 263.834 249.831,272.106 243.172,276.821 238.802 C 285.255 230.988,286.926 227.640,287.662 217.083 C 288.029 211.815,287.492 202.296,286.828 202.296 C 286.716 202.296,284.263 204.757,281.378 207.765 M142.068 220.713 C 142.080 228.552,146.628 244.408,150.059 248.575 C 151.904 250.817,167.435 263.931,172.950 267.904 C 173.860 268.560,175.759 265.455,176.381 262.293 C 178.561 251.215,168.052 237.667,144.902 221.710 C 141.867 219.618,142.066 219.688,142.068 220.713 M256.718 221.934 C 231.610 239.162,220.972 254.688,226.727 265.703 C 227.882 267.915,228.345 268.367,228.982 267.911 C 234.957 263.632,250.564 250.356,252.260 248.110 C 255.239 244.163,257.894 235.400,259.433 224.429 C 260.135 219.424,260.238 219.519,256.718 221.934 M68.628 234.698 L 63.116 234.841 64.750 236.354 C 86.415 256.403,115.520 262.529,122.436 248.495 C 123.299 246.743,123.501 246.965,119.649 245.441 C 117.941 244.765,112.498 242.500,107.555 240.409 C 92.046 233.848,93.434 234.052,68.628 234.698 M309.664 234.737 C 307.217 235.093,305.403 235.767,294.126 240.508 C 288.406 242.913,282.694 245.306,281.431 245.827 C 278.649 246.975,278.561 247.221,280.110 249.540 C 286.241 258.722,302.610 258.331,320.138 248.583 C 325.828 245.419,334.628 239.039,337.689 235.859 L 338.714 234.794 330.555 234.615 C 320.165 234.387,311.726 234.436,309.664 234.737 M183.205 249.696 C 183.290 250.885,183.625 256.111,183.950 261.310 C 184.507 270.226,184.579 270.840,185.214 272.113 C 186.048 273.784,189.635 277.364,192.100 278.985 C 194.343 280.460,194.405 280.126,191.409 282.723 C 181.791 291.061,173.454 302.211,169.655 311.816 C 167.983 316.043,166.388 322.713,166.683 324.244 C 166.750 324.591,169.665 320.897,175.942 312.510 C 185.058 300.331,199.381 282.963,199.862 283.507 C 215.281 300.957,215.758 301.539,224.145 313.167 C 232.821 325.194,232.866 325.249,232.645 323.650 C 230.623 309.015,221.131 293.714,206.492 281.496 C 205.754 280.881,205.207 280.331,205.276 280.275 C 205.345 280.218,206.352 279.523,207.514 278.730 C 214.222 274.146,214.542 273.395,215.383 260.230 C 215.753 254.436,216.122 249.240,216.201 248.683 C 216.281 248.126,216.289 247.670,216.219 247.670 C 216.110 247.670,207.405 257.945,201.626 264.895 C 200.604 266.124,199.685 267.096,199.583 267.056 C 199.482 267.015,196.810 263.883,193.645 260.095 C 187.496 252.733,183.718 248.243,183.305 247.806 C 183.145 247.636,183.108 248.337,183.205 249.696 M124.240 256.739 C 123.869 256.803,122.654 256.986,121.540 257.145 C 117.876 257.669,97.232 262.915,97.232 263.322 C 97.232 263.594,104.862 267.475,108.575 269.091 C 131.333 278.998,150.955 278.159,156.517 267.040 C 157.691 264.694,158.217 265.095,150.979 262.828 C 135.908 258.110,127.461 256.186,124.240 256.739 M272.384 256.986 C 265.503 258.197,244.929 264.385,244.751 265.296 C 244.587 266.141,246.163 268.639,248.046 270.518 C 255.789 278.241,272.379 277.862,292.370 269.505 C 295.938 268.013,304.659 263.635,304.659 263.336 C 304.659 263.132,295.151 260.528,287.934 258.754 C 279.940 256.790,276.025 256.344,272.384 256.986 " stroke="none" fill="currentColor" fill-rule="evenodd"></path></g></svg>